<svg width="94" height="94" viewBox="0 0 94 94" fill="none" xmlns="http://www.w3.org/2000/svg">
<path d="M86.0916 94C76.2695 86.4041 62.816 81.7042 47.9625 81.7042C33.1308 81.7042 19.6773 86.4041 9.85516 94H86.0916Z" fill="white"/>
<path d="M90.3573 89.6068C88.4104 89.8916 62.4659 89.6068 62.4659 89.6068L61.8534 86.6634L59.4908 75.0796C59.4908 75.0796 69.0505 75.6018 68.4598 74.8185C67.8692 74.0589 66.8192 62.1429 61.5034 60.3388C56.1876 58.5348 47.9624 58.2737 47.9624 58.2737V35.6284L55.5532 30.0977C59.2283 34.7501 78.8289 46.595 81.2133 52.2682C83.5978 57.9176 92.9605 72.3261 93.8137 77.9756C94.6887 83.6487 92.3042 89.3457 90.3573 89.6068Z" fill="url(#paint0_linear_20_16)"/>
<path style="mix-blend-mode:multiply" d="M90.3572 89.6075C88.4102 89.8923 62.4658 89.6075 62.4658 89.6075L61.8533 86.6641C66.6659 86.4504 73.7098 86.0469 80.185 85.4535C91.4291 84.409 93.8135 77.9763 93.8135 77.9763C94.6885 83.6494 92.3041 89.3464 90.3572 89.6075Z" fill="url(#paint1_linear_20_16)"/>
<path style="mix-blend-mode:multiply" d="M86.0915 75.4852C86.0915 75.4852 80.2288 61.6465 74.2787 58.1096L76.16 74.0135L86.0915 75.4852Z" fill="url(#paint2_linear_20_16)"/>
<path d="M74.2781 76.8366C74.2781 76.8366 82.4815 74.0831 89.8973 78.0709C89.8973 78.0709 88.016 74.0356 80.1189 72.279C80.1189 72.279 75.0875 54.31 69.1373 53.4792C63.1872 52.6246 62.8809 78.0709 62.8809 78.0709L74.2781 76.8366Z" fill="#00042D"/>
<path d="M38.4468 30.0977C34.7716 34.7501 15.1711 46.595 12.7867 52.2682C10.4022 57.9176 1.03948 72.3261 0.186331 77.9756C-0.688693 83.6487 1.69574 89.3457 3.64267 89.6068C5.5896 89.8916 31.5341 89.6068 31.5341 89.6068L34.5091 75.0796C34.5091 75.0796 24.9495 75.6018 25.5401 74.8185C26.1308 74.0589 27.1808 62.1429 32.4966 60.3388C37.8124 58.5348 46.0376 58.2737 46.0376 58.2737V35.6284L38.4468 30.0977Z" fill="url(#paint3_linear_20_16)"/>
<path style="mix-blend-mode:multiply" d="M3.64267 89.6075C5.5896 89.8923 31.5341 89.6075 31.5341 89.6075L32.1466 86.6641C27.334 86.4504 20.29 86.0469 13.8148 85.4535C2.57077 84.409 0.186331 77.9763 0.186331 77.9763C-0.688693 83.6494 1.69574 89.3464 3.64267 89.6075Z" fill="url(#paint4_linear_20_16)"/>
<path style="mix-blend-mode:multiply" d="M7.90762 75.4852C7.90762 75.4852 13.7703 61.6465 19.7204 58.1096L17.8392 74.0135L7.90762 75.4852Z" fill="url(#paint5_linear_20_16)"/>
<path d="M20.4206 76.8366C20.4206 76.8366 12.2173 74.0831 4.80145 78.0709C4.80145 78.0709 6.68276 74.0356 14.558 72.279C14.558 72.279 19.5894 54.31 25.5614 53.4792C31.5116 52.6246 31.7959 78.0709 31.7959 78.0709L20.4206 76.8366Z" fill="#00042D"/>
<path d="M66.7096 29.2448C66.4253 35.9624 65.3534 50.1335 61.0001 53.9789C57.7407 56.8511 51.8342 55.0471 47.4154 55.0471C42.2527 55.0471 37.0245 57.7531 33.5681 53.9789C30.068 50.181 28.3617 35.1316 28.1211 29.2448C31.5118 21.364 38.8839 15.8807 47.4154 15.8807C55.9687 15.8807 63.3408 21.364 66.7096 29.2448Z" fill="url(#paint6_linear_20_16)"/>
<path style="mix-blend-mode:multiply" d="M28.9752 22.5734C28.9752 32.448 31.294 42.7974 33.1096 47.3787C34.9472 51.96 41.0286 60.2917 47.4382 61.5261C53.8477 62.7604 60.126 52.6721 62.1386 46.6903C65.4199 37.053 65.7262 21.2441 65.7262 21.2441C65.7262 21.2441 55.2696 10.9184 45.4912 11.8916C35.7347 12.8411 28.9752 22.5734 28.9752 22.5734Z" fill="url(#paint7_linear_20_16)"/>
<path d="M32.9339 20.1539C32.9339 27.7973 34.7496 35.7967 36.1934 39.3335C37.6153 42.8941 41.6404 50.3001 47.4156 50.3001C52.5126 50.3001 57.369 43.4401 58.944 38.8351C61.5253 31.3578 61.766 19.1095 61.766 19.1095C61.766 19.1095 53.5626 11.1338 45.9062 11.8696C38.2278 12.6055 32.9339 20.1539 32.9339 20.1539Z" fill="#00042D"/>
<path d="M47.416 0C40.3064 0 28.0998 15.9514 28.0998 28.176C28.0998 28.54 28.1071 28.8961 28.1217 29.2442C31.5124 21.3635 38.8845 15.8802 47.416 15.8802C55.9693 15.8802 63.3414 21.3635 66.7103 29.2442C66.7248 28.8961 66.7321 28.54 66.7321 28.176C66.7321 15.9514 54.7662 0 47.416 0Z" fill="url(#paint8_linear_20_16)"/>
<path d="M70.6264 88.3251H24.2064C22.0189 88.3251 20.1813 86.4974 20.0063 84.1237L17.3812 51.3901C17.1625 48.7078 19.1094 46.4053 21.5813 46.4053H73.2515C75.7453 46.4053 77.6704 48.7078 77.4735 51.3901L74.8484 84.1237C74.6515 86.4974 72.8359 88.3251 70.6264 88.3251Z" fill="white"/>
<path d="M70.6264 89.7496H24.2064C22.0189 89.7496 20.1813 87.9219 20.0063 85.5482L17.3812 52.8146C17.1625 50.1323 19.1094 47.8298 21.5813 47.8298H73.2515C75.7453 47.8298 77.6704 50.1323 77.4735 52.8146L74.8484 85.5482C74.6515 87.9219 72.8359 89.7496 70.6264 89.7496Z" fill="url(#paint9_linear_20_16)"/>
<g style="mix-blend-mode:multiply">
<path d="M24.1408 47.8298H21.5813C19.1094 47.8298 17.1625 50.1323 17.3812 52.8146L20.0063 85.5482C20.1813 87.9219 22.0189 89.7496 24.2064 89.7496H26.0221L24.1408 47.8298Z" fill="url(#paint10_linear_20_16)"/>
<path d="M73.2508 47.8295H70.6914L68.8101 89.7494H70.6258C72.8352 89.7494 74.6509 87.9216 74.8477 85.5479L77.4728 52.8143C77.6697 50.132 75.7447 47.8295 73.2508 47.8295Z" fill="url(#paint11_linear_20_16)"/>
</g>
<defs>
<linearGradient id="paint0_linear_20_16" x1="7.50895" y1="91.5195" x2="74.4739" y2="-22.3515" gradientUnits="userSpaceOnUse">
<stop stop-color="#FF00C1"/>
<stop offset="1" stop-color="#F4AC24"/>
</linearGradient>
<linearGradient id="paint1_linear_20_16" x1="69.5771" y1="93.5519" x2="81.0788" y2="70.2528" gradientUnits="userSpaceOnUse">
<stop stop-color="#F4D63B" stop-opacity="0"/>
<stop offset="1" stop-color="#5C1CB2"/>
</linearGradient>
<linearGradient id="paint2_linear_20_16" x1="94.3342" y1="54.4895" x2="89.8285" y2="78.8101" gradientUnits="userSpaceOnUse">
<stop stop-color="#F4D63B" stop-opacity="0"/>
<stop offset="1" stop-color="#5C1CB2"/>
</linearGradient>
<linearGradient id="paint3_linear_20_16" x1="-22.9255" y1="56.3987" x2="23.4294" y2="-22.426" gradientUnits="userSpaceOnUse">
<stop stop-color="#FF00C1"/>
<stop offset="1" stop-color="#F4AC24"/>
</linearGradient>
<linearGradient id="paint4_linear_20_16" x1="24.4227" y1="93.5519" x2="12.9211" y2="70.2528" gradientUnits="userSpaceOnUse">
<stop stop-color="#F4D63B" stop-opacity="0"/>
<stop offset="1" stop-color="#5C1CB2"/>
</linearGradient>
<linearGradient id="paint5_linear_20_16" x1="-0.335102" y1="54.4895" x2="4.1706" y2="78.8101" gradientUnits="userSpaceOnUse">
<stop stop-color="#F4D63B" stop-opacity="0"/>
<stop offset="1" stop-color="#5C1CB2"/>
</linearGradient>
<linearGradient id="paint6_linear_20_16" x1="-3.02013" y1="81.4597" x2="51.0478" y2="-10.4805" gradientUnits="userSpaceOnUse">
<stop stop-color="#FF00C1"/>
<stop offset="1" stop-color="#F4AC24"/>
</linearGradient>
<linearGradient id="paint7_linear_20_16" x1="14.1393" y1="59.7104" x2="19.2268" y2="14.1666" gradientUnits="userSpaceOnUse">
<stop stop-color="#F4D63B" stop-opacity="0"/>
<stop offset="1" stop-color="#5C1CB2"/>
</linearGradient>
<linearGradient id="paint8_linear_20_16" x1="-2.74149" y1="81.5842" x2="50.6341" y2="-9.17856" gradientUnits="userSpaceOnUse">
<stop stop-color="#FF00C1"/>
<stop offset="1" stop-color="#F4AC24"/>
</linearGradient>
<linearGradient id="paint9_linear_20_16" x1="75.0053" y1="47.2596" x2="48.5494" y2="110.117" gradientUnits="userSpaceOnUse">
<stop stop-color="#A76DFC"/>
<stop offset="1" stop-color="#5C1CB2"/>
</linearGradient>
<linearGradient id="paint10_linear_20_16" x1="109.284" y1="52.1853" x2="107.248" y2="91.9069" gradientUnits="userSpaceOnUse">
<stop stop-color="white" stop-opacity="0"/>
<stop offset="1" stop-color="#5C1CB2"/>
</linearGradient>
<linearGradient id="paint11_linear_20_16" x1="160.626" y1="54.7145" x2="158.6" y2="94.2184" gradientUnits="userSpaceOnUse">
<stop stop-color="white" stop-opacity="0"/>
<stop offset="1" stop-color="#5C1CB2"/>
</linearGradient>
</defs>
</svg>
