<svg width="82" height="60" viewBox="0 0 82 60" fill="none" xmlns="http://www.w3.org/2000/svg">
<path fill-rule="evenodd" clip-rule="evenodd" d="M27.1133 4.14612C25.9659 5.92758 25.4375 8.16196 24.9242 10.3208C24.5467 11.8608 23.4748 17.1598 23.3541 21.1002C23.1226 21.1505 22.8861 21.2008 22.6445 21.2512C21.6632 21.4625 20.6366 21.7645 19.6704 22.1117C19.4791 22.1822 19.2929 22.2526 19.1118 22.3231C18.9407 22.3935 18.7696 22.464 18.5985 22.5344C18.2965 22.6703 18.0097 22.8062 17.753 22.942L17.7379 22.9571H17.7228C17.3605 23.1685 16.2735 23.9385 14.0391 26.7918L14.024 26.8069L14.0089 26.822C11.8954 29.5244 9.37413 33.2383 6.55096 37.8882C0.43663 47.9278 -0.106865 51.6417 0.0139084 53.5741V53.5892C0.0239716 53.6899 0.0340424 53.7805 0.0441055 53.861C0.315857 56.1859 2.08221 57.8315 4.81479 58.2995C6.62645 58.8883 8.87592 59.2053 11.3518 59.2053C12.3181 59.2053 13.3296 59.145 14.3562 59.0544C14.8846 59.0091 15.5036 58.9487 16.1829 58.8883C22.5237 58.3297 34.4354 57.3786 34.5561 57.3635L35.0543 57.3182L35.462 57.0163C41.9688 52.0493 42.301 51.1133 42.467 50.6604L43.237 48.5468L40.9875 48.3656C40.9271 48.3656 34.6165 47.8674 24.1693 46.4785C23.8221 46.4332 23.3088 46.4181 22.6596 46.4181C21.482 46.4181 19.3986 46.4936 17.0888 46.7653C17.28 46.6949 17.4763 46.6345 17.6776 46.5842C19.2477 46.1312 20.6064 45.1046 21.5122 43.7157C23.2635 40.9831 24.2448 38.8695 24.5165 37.2541C24.5769 36.8767 24.7581 35.7595 24.0636 31.8795C24.114 31.8795 24.1593 31.8795 24.1995 31.8795C24.7279 31.9399 25.3771 32.0003 26.0867 32.0003C30.6158 32.0003 33.8315 29.1923 35.8998 23.4252C37.5303 18.8356 39.357 15.937 41.3197 14.8047C41.999 14.4122 42.8898 14.2159 43.9617 14.2159C44.2032 14.2159 44.4498 14.226 44.7014 14.2461C45.3355 14.2914 45.9092 14.3971 46.3772 14.5028C45.7582 15.1972 45.3204 16.0729 45.1694 17.0391C44.943 18.6847 44.5655 20.1793 44.2183 20.9794C43.8409 21.8098 43.6144 22.5646 43.4182 23.2289C43.0709 24.3914 42.8596 25.0255 42.2255 25.5991C40.3383 27.3353 38.9192 28.226 37.9832 28.226C37.7567 28.226 37.5454 28.1807 37.2283 28.0751L34.2844 27.0787L35.0091 30.0981C35.0694 30.3094 35.5978 32.2419 38.1191 32.9212H38.1342C38.8135 33.1024 39.508 33.193 40.1874 33.193C40.2478 33.193 40.5799 33.2081 42.2859 33.3138C43.5389 33.4044 44.5052 34.4008 44.5655 35.6387C44.9279 44.0931 44.5504 46.4483 44.3995 47.022C44.0673 47.7768 41.531 52.94 40.5195 54.7064C40.2327 55.2197 39.9156 55.733 39.5684 56.2765L37.9077 58.9034H48.3247L48.4304 57.288C48.4304 57.2729 48.521 55.9142 48.6116 53.9063C51.1328 55.9595 53.0652 57.4994 53.0954 57.5296L53.8654 58.1485L54.8014 57.7862C54.892 57.7409 57.1716 56.8351 59.4664 55.8085C60.8402 55.1744 61.9423 54.6309 62.7123 54.178C63.603 53.6798 65.2335 52.7438 64.8259 51.1586C64.5541 50.0565 60.5836 43.8063 59.3607 41.904C57.7453 39.3828 53.7446 33.2534 51.5857 30.7775C50.6648 29.7358 49.7288 28.8299 48.7323 28.0298C49.8193 26.5503 50.6195 25.0556 51.1328 23.9234C52.3406 21.3267 53.2162 16.8126 52.5821 14.6688V14.6386L52.567 14.6235C52.567 14.6235 52.5217 14.4575 52.416 14.1706C52.1896 13.5516 51.9329 12.9326 51.6763 12.3439C50.9818 10.7587 50.0307 8.61487 48.521 7.13535C44.5051 3.24029 38.9192 0.870041 33.5748 0.794556C33.5245 0.794556 33.4742 0.794556 33.4239 0.794556C30.646 0.794556 28.5324 1.91175 27.1133 4.14612ZM33.5597 2.50053C38.6777 2.57602 43.8409 4.97646 47.3283 8.35822C48.5965 9.59618 49.4721 11.5739 50.1062 13.0232C50.4232 13.763 50.6648 14.382 50.8007 14.7594C50.8912 15.001 50.9365 15.1519 50.9365 15.1519C51.3894 16.6918 50.7554 20.6775 49.5778 23.2138C49.1098 24.2253 47.9926 26.4748 46.2564 28.3619C47.6604 29.2526 48.9739 30.3849 50.3024 31.9097C53.7144 35.8048 62.9236 50.5849 63.1652 51.5662C63.4068 52.5324 54.1673 56.1859 54.1673 56.1859C54.1673 56.1859 50.7856 53.4835 47.0717 50.4339C46.9056 54.178 46.7244 57.1823 46.7244 57.1823H41.0177C41.3599 56.6489 41.687 56.1054 41.999 55.5518C43.1011 53.6496 45.9394 47.8523 46.03 47.5957C46.6036 45.6934 46.4527 39.5791 46.2715 35.5632C46.1809 33.4496 44.5202 31.7588 42.4066 31.6078C41.3649 31.5474 40.4289 31.487 40.1874 31.487C39.6741 31.487 39.1306 31.4115 38.5569 31.2757C36.9415 30.8227 36.6697 29.6905 36.6697 29.6905C37.0774 29.8263 37.5001 29.932 37.9832 29.932C39.191 29.932 40.7611 29.2828 43.388 26.8673C44.9279 25.4331 44.8222 23.7875 45.7733 21.689C46.2111 20.7228 46.6187 19.0621 46.8754 17.2957C47.1019 15.7558 48.4002 14.6537 49.8948 14.6537C50.1162 14.6537 50.3427 14.6789 50.5742 14.7292C50.1364 14.2914 49.3211 13.6271 48.1436 13.2195C47.8416 13.1138 46.4829 12.676 44.8373 12.5401C44.5555 12.52 44.2636 12.5099 43.9617 12.5099C42.7841 12.5099 41.531 12.7062 40.4591 13.3252C37.1679 15.2274 35.1751 20.3755 34.2844 22.8515C31.9745 29.313 28.6683 30.2943 26.0867 30.2943C25.0902 30.2943 24.2146 30.1434 23.5352 30.1132C23.5151 30.1132 23.495 30.1132 23.4749 30.1132C22.8257 30.1132 22.2973 30.6114 22.252 31.2304C22.2419 31.331 22.247 31.4367 22.2671 31.5474C22.5841 33.2383 23.0068 35.8652 22.8257 36.9824C22.569 38.5525 21.4065 40.7114 20.0629 42.7948C19.3986 43.8214 18.3871 44.5913 17.2095 44.9386C15.6847 45.3613 14.2505 45.935 13.1182 46.6747C12.4841 47.0673 9.64588 48.8638 8.75515 50.6453C11.8803 48.743 19.4137 48.1241 22.6596 48.1241C23.2333 48.1241 23.6711 48.1392 23.9429 48.1844C34.5561 49.5885 40.8667 50.0867 40.8667 50.0867C40.5346 50.9925 34.4203 55.6575 34.4203 55.6575C34.4203 55.6575 22.4633 56.6237 16.032 57.1823C15.3526 57.2427 14.7336 57.3031 14.1901 57.3484C13.2038 57.439 12.2577 57.4843 11.3518 57.4843C8.93631 57.4843 6.83781 57.1823 5.22242 56.6388C3.45605 56.3671 1.94634 55.4764 1.75008 53.6647C1.74001 53.5942 1.72995 53.5238 1.71988 53.4533C1.56891 51.1284 3.13902 46.7955 8.01539 38.7789C11.2915 33.3893 13.6919 30.0075 15.3526 27.8788C15.3627 27.8687 15.3727 27.8587 15.3828 27.8486C17.6474 24.9651 18.5683 24.4518 18.5683 24.4518C18.7645 24.3461 19.0061 24.2253 19.2929 24.1045C19.4339 24.0441 19.5848 23.9837 19.7459 23.9234C19.9069 23.8529 20.078 23.7875 20.2592 23.7271C21.0442 23.4402 22.0104 23.1383 23.0219 22.9118C23.2434 22.8615 23.4698 22.8162 23.7013 22.776H23.7164C24.4864 22.625 25.0299 21.9758 25.0601 21.2059C25.1657 17.5826 26.1772 12.4344 26.5849 10.7134C27.5813 6.59186 28.5777 2.50053 33.4239 2.50053C33.4641 2.50053 33.5094 2.50053 33.5597 2.50053Z" fill="#00042D"/>
<path d="M1.72033 53.4527C1.73039 53.5232 1.74046 53.5936 1.75052 53.6641C1.94678 55.4757 3.4565 56.3665 5.22286 56.6382C7.44214 57.378 10.5974 57.6799 14.1906 57.3478C14.7341 57.3025 15.353 57.2421 16.0324 57.1817C22.4638 56.6231 34.4207 55.6569 34.4207 55.6569C34.4207 55.6569 40.535 51.8223 40.8672 50.9164C40.8672 50.9164 39.9764 50.7202 38.3007 50.4182C37.1684 50.2069 35.6738 49.9502 33.8319 49.6483C31.1899 49.2104 27.8535 48.6971 23.9433 48.1838C22.2071 47.9423 12.4242 48.4103 8.75559 50.6447C9.64632 48.8632 12.4846 47.0667 13.1187 46.659C14.2509 45.9344 15.6852 45.3607 17.21 44.938C18.3876 44.5907 19.3991 43.8208 20.0633 42.7942C21.407 40.7108 22.5695 38.5519 22.8261 36.9818C23.0073 35.8646 22.5846 33.2377 22.2675 31.5468C22.2474 31.4361 22.2424 31.3304 22.2524 31.2298C22.3128 30.5957 22.8563 30.0824 23.5357 30.1126C25.9814 30.2334 31.0842 31.8035 34.2848 22.8509C35.1756 20.3749 37.1684 15.2268 40.4596 13.3246C41.8032 12.5546 43.4186 12.4338 44.8377 12.5395C46.4833 12.6754 47.842 13.1132 48.144 13.2189C49.3216 13.6265 50.1368 14.2908 50.5746 14.7286C50.3431 14.6783 50.1167 14.6531 49.8953 14.6531C48.4006 14.6531 47.1023 15.7552 46.8758 17.2951C46.6192 19.0615 46.2116 20.7222 45.7737 21.6884C44.8226 23.7869 44.9283 25.4325 43.3884 26.8667C39.7198 30.2484 38.0893 30.173 36.6702 29.6899C36.6702 29.6899 36.9419 30.8221 38.5573 31.2751C39.131 31.4109 39.6745 31.4864 40.1878 31.4864C40.4294 31.4864 41.3654 31.5468 42.4071 31.6072C44.5207 31.7582 46.1814 33.449 46.2719 35.5626C46.4531 39.5785 46.6041 45.6928 46.0304 47.5951C45.9398 47.8517 43.1016 53.649 41.9995 55.5512C41.6875 56.1048 41.3603 56.6483 41.0181 57.1817H46.7249C46.7249 57.1817 46.906 54.1774 47.0721 50.4333C50.786 53.4829 54.1677 56.1853 54.1677 56.1853C54.1677 56.1853 63.4072 52.5318 63.1656 51.5656C62.9241 50.5843 53.7148 35.8042 50.3029 31.9091C48.9743 30.3843 47.6609 29.252 46.2568 28.3613C47.993 26.4742 49.1102 24.2247 49.5782 23.2132C50.7558 20.6769 51.3899 16.6912 50.937 15.1513C50.937 15.1513 50.8917 15.0003 50.8011 14.7588C50.6652 14.3814 50.4237 13.7624 50.1066 13.0226C49.4725 11.5733 48.5969 9.59557 47.3287 8.35761C43.8413 4.97585 38.6781 2.57541 33.5602 2.49992C28.5932 2.42444 27.5817 6.54595 26.5853 10.7128C26.1777 12.4338 25.1662 17.582 25.0605 21.2053C25.0303 21.9752 24.4868 22.6244 23.7168 22.7754H23.7017C23.4703 22.8156 23.2438 22.8609 23.0224 22.9112C22.0109 23.1377 21.0446 23.4396 20.2596 23.7265C20.0784 23.7869 19.9073 23.8523 19.7463 23.9228C19.5853 23.9831 19.4343 24.0435 19.2934 24.1039C19.0065 24.2247 18.765 24.3455 18.5687 24.4512C18.5687 24.4512 17.6478 24.9645 15.3832 27.848C15.3732 27.8581 15.3631 27.8681 15.353 27.8782C13.6923 30.0069 11.2919 33.3887 8.01583 38.7783C3.13946 46.7949 1.56935 51.1278 1.72033 53.4527Z" fill="url(#paint0_linear_2003_36)"/>
<path style="mix-blend-mode:multiply" d="M13.1182 46.6743C14.2505 45.9346 15.6847 45.3609 17.2095 44.9382C18.3871 44.5909 19.3986 43.821 20.0629 42.7944C21.4065 40.711 22.569 38.5521 22.8257 36.982C23.0068 35.8648 22.5841 33.2379 22.2671 31.547C22.2469 31.4363 22.2419 31.3306 22.252 31.23C21.8292 32.6038 21.8443 34.657 21.4065 35.9101C18.9004 43.4285 13.5711 46.1308 13.1182 46.6743Z" fill="url(#paint1_linear_2003_36)"/>
<path style="mix-blend-mode:multiply" d="M1.71989 53.4538C1.72995 53.5243 1.74002 53.5947 1.75008 53.6652C1.94635 55.4768 3.45606 56.3676 5.22242 56.6393C7.4417 57.3791 10.597 57.681 14.1901 57.3489C14.7336 57.3036 15.3526 57.2432 16.032 57.1828C22.4633 56.6242 34.4203 55.658 34.4203 55.658C34.4203 55.658 36.8056 52.4272 38.3002 50.4193C37.1679 50.2079 35.6733 49.9513 33.8315 49.6493C32.4425 51.612 30.3742 53.016 26.0263 53.6048C19.7006 54.4653 15.0205 55.3711 9.46471 54.7975C6.50568 54.4955 4.33169 53.1519 4.55815 51.31C5.29791 44.8032 11.9406 32.6198 15.3526 27.8793C13.6919 30.008 11.2915 33.3897 8.01539 38.7794C3.13902 46.796 1.56892 51.1289 1.71989 53.4538Z" fill="url(#paint2_linear_2003_36)"/>
<path d="M52.3406 57.363H22.7049C22.3124 57.363 21.9954 57.0459 21.9954 56.6534V56.2156C21.9954 55.8231 22.3124 55.5211 22.7049 55.5211H52.3406C52.7331 55.5211 53.0502 55.8231 53.0502 56.2156V56.6534C53.0502 57.0459 52.7331 57.363 52.3406 57.363Z" fill="white"/>
<path d="M46.0751 57.363H15.5336C15.2619 57.363 15.0354 57.1365 15.0354 56.8648V56.442C15.0354 55.9287 15.4581 55.5211 15.9714 55.5211H46.0751C46.0852 55.5211 46.0902 55.5211 46.0902 55.5211V57.3479C46.0902 57.3579 46.0852 57.363 46.0751 57.363Z" fill="white"/>
<path d="M46.0751 57.363H15.5336C15.2619 57.363 15.0354 57.1365 15.0354 56.8648V56.442C15.0354 55.9287 15.4581 55.5211 15.9714 55.5211H46.0751C46.0852 55.5211 46.0902 55.5211 46.0902 55.5211V57.3479C46.0902 57.3579 46.0852 57.363 46.0751 57.363Z" fill="white"/>
<path d="M68.9925 57.3636H34.088C33.3784 57.3636 32.8953 56.6238 33.1821 55.9746L43.4784 32.1816C43.6445 31.8192 43.9917 31.5928 44.3993 31.5928H79.3039C80.0134 31.5928 80.4965 32.3174 80.2097 32.9817L69.9135 56.7597C69.7474 57.122 69.4002 57.3636 68.9925 57.3636Z" fill="url(#paint3_linear_2003_36)"/>
<path d="M68.9925 57.3636H34.088C33.3784 57.3636 32.8953 56.6238 33.1821 55.9746L43.4784 32.1816C43.6445 31.8192 43.9917 31.5928 44.3993 31.5928H79.3039C80.0134 31.5928 80.4965 32.3174 80.2097 32.9817L69.9135 56.7597C69.7474 57.122 69.4002 57.3636 68.9925 57.3636Z" fill="white"/>
<path d="M70.6988 57.3634H35.7942C35.0846 57.3634 34.6015 56.6237 34.8884 55.9745L45.1846 32.1814C45.3507 31.8191 45.6979 31.5927 46.1055 31.5927H81.0101C81.7197 31.5927 82.2028 32.3173 81.9159 32.9816L71.6197 56.7596C71.4536 57.1219 71.1064 57.3634 70.6988 57.3634Z" fill="url(#paint4_linear_2003_36)"/>
<path style="mix-blend-mode:multiply" d="M36.67 29.6907C36.67 29.6907 37.5154 31.291 39.5385 30.8833C43.6147 30.0832 46.1963 27.1393 47.5852 23.4405C48.4458 21.1608 48.7477 19.1076 49.0497 17.5828C49.3818 15.8013 50.5745 14.7294 50.5745 14.7294C50.343 14.6791 50.1165 14.6539 49.8951 14.6539C48.4005 14.6539 47.1021 15.756 46.8757 17.2959C46.619 19.0623 46.2114 20.723 45.7736 21.6892C44.8225 23.7877 44.9281 25.4333 43.3882 26.8675C39.7196 30.2493 38.0891 30.1738 36.67 29.6907Z" fill="url(#paint5_linear_2003_36)"/>
<path style="mix-blend-mode:multiply" d="M23.5355 30.1127C25.9812 30.2335 31.084 31.8036 34.2846 22.851C35.1754 20.3751 37.1682 15.227 40.4594 13.3247C41.803 12.5548 43.4184 12.434 44.8375 12.5397C35.9151 10.8186 34.1488 17.4009 30.5556 23.621C27.6268 28.6936 24.6376 29.2975 23.5355 30.1127Z" fill="url(#paint6_linear_2003_36)"/>
<path d="M28.4417 37.2992C28.5474 35.4272 28.638 33.5098 28.6229 32.3474C28.6229 32.1813 28.7437 32.0454 28.9097 32.0454C29.0758 32.0454 29.2117 32.1662 29.2117 32.3323C29.2268 33.5249 29.1211 35.4574 29.0305 37.3294C28.9399 38.9599 28.8644 40.6659 28.8644 41.768C28.8644 41.9189 28.7286 42.0548 28.5625 42.0548C28.3964 42.0548 28.2757 41.9189 28.2757 41.768C28.2757 40.6508 28.3511 39.0203 28.4417 37.2992Z" fill="url(#paint7_linear_2003_36)"/>
<path d="M36.247 32.9218C36.247 32.7557 36.3677 32.6199 36.5338 32.6199C36.6999 32.6199 36.8358 32.7406 36.8358 32.9067C36.8659 34.809 36.7754 36.9377 36.6848 39.006C36.6395 39.9269 36.5942 40.8176 36.564 41.6631C36.564 41.8291 36.4281 41.9499 36.2772 41.9499C36.2772 41.9499 36.2721 41.9499 36.2621 41.9499C36.1111 41.9499 35.9752 41.7989 35.9752 41.648C36.0054 40.7874 36.0507 39.8967 36.096 38.9758C36.1866 36.9226 36.2772 34.809 36.247 32.9218Z" fill="url(#paint8_linear_2003_36)"/>
<defs>
<linearGradient id="paint0_linear_2003_36" x1="66.6994" y1="48.7041" x2="55.5151" y2="-4.80529" gradientUnits="userSpaceOnUse">
<stop stop-color="#FF00C1"/>
<stop offset="1" stop-color="#F4AC24"/>
</linearGradient>
<linearGradient id="paint1_linear_2003_36" x1="30.1565" y1="48.3275" x2="30.9189" y2="30.638" gradientUnits="userSpaceOnUse">
<stop stop-color="#F4D63B" stop-opacity="0"/>
<stop offset="1" stop-color="#5C1CB2"/>
</linearGradient>
<linearGradient id="paint2_linear_2003_36" x1="1.16326" y1="36.3266" x2="14.8843" y2="78.5874" gradientUnits="userSpaceOnUse">
<stop stop-color="#F4D63B" stop-opacity="0"/>
<stop offset="1" stop-color="#5C1CB2"/>
</linearGradient>
<linearGradient id="paint3_linear_2003_36" x1="50.3367" y1="28.9396" x2="43.3089" y2="56.4888" gradientUnits="userSpaceOnUse">
<stop stop-color="#A76DFC"/>
<stop offset="1" stop-color="#5C1CB2"/>
</linearGradient>
<linearGradient id="paint4_linear_2003_36" x1="52.0432" y1="28.9395" x2="45.0154" y2="56.4887" gradientUnits="userSpaceOnUse">
<stop stop-color="#A76DFC"/>
<stop offset="1" stop-color="#5C1CB2"/>
</linearGradient>
<linearGradient id="paint5_linear_2003_36" x1="62.2883" y1="35.1792" x2="48.841" y2="4.85922" gradientUnits="userSpaceOnUse">
<stop stop-color="#F4D63B" stop-opacity="0"/>
<stop offset="1" stop-color="#5C1CB2"/>
</linearGradient>
<linearGradient id="paint6_linear_2003_36" x1="28.2127" y1="4.92317" x2="21.9047" y2="32.9477" gradientUnits="userSpaceOnUse">
<stop stop-color="#F4D63B" stop-opacity="0"/>
<stop offset="1" stop-color="#5C1CB2"/>
</linearGradient>
<linearGradient id="paint7_linear_2003_36" x1="-25.0286" y1="33.4813" x2="-24.2474" y2="45.9025" gradientUnits="userSpaceOnUse">
<stop stop-color="#F4AC24"/>
<stop offset="1" stop-color="#FF00C1"/>
</linearGradient>
<linearGradient id="paint8_linear_2003_36" x1="-14.7461" y1="32.8341" x2="-13.9655" y2="45.2483" gradientUnits="userSpaceOnUse">
<stop stop-color="#F4AC24"/>
<stop offset="1" stop-color="#FF00C1"/>
</linearGradient>
</defs>
</svg>
